<?xml version="1.0" standalone="no"?>
<!DOCTYPE svg PUBLIC "-//W3C//DTD SVG 20010904//EN"
 "http://www.w3.org/TR/2001/REC-SVG-20010904/DTD/svg10.dtd">
<svg version="1.0" xmlns="http://www.w3.org/2000/svg"
 width="1754.000000pt" height="1241.000000pt" viewBox="0 0 1754.000000 1241.000000"
 preserveAspectRatio="xMidYMid meet">

<g transform="translate(0.000000,1241.000000) scale(0.100000,-0.100000)"
fill="#000000" stroke="none">
<path d="M7040 7127 c0 -442 -3 -1155 -7 -1585 l-6 -782 552 0 552 0 -2 548
-1 547 394 6 c339 6 409 9 512 28 213 38 399 112 566 226 44 30 83 55 85 55 3
0 5 -22 5 -49 0 -27 9 -101 20 -164 55 -323 212 -629 441 -857 238 -238 517
-371 889 -426 155 -22 454 -15 581 15 186 43 351 114 510 222 l87 58 37 -89
c21 -49 45 -96 54 -105 15 -13 70 -15 414 -15 l397 0 0 1242 c0 702 4 1238 9
1232 7 -8 233 -426 715 -1321 78 -145 143 -263 146 -263 3 0 25 37 49 83 24
45 145 269 269 497 124 228 225 420 225 426 0 10 -61 125 -474 884 -70 129
-133 247 -140 263 l-12 27 -763 0 c-482 0 -772 -4 -789 -10 -17 -7 -33 -26
-47 -57 -58 -136 -72 -163 -80 -163 -6 0 -51 27 -101 61 -363 243 -772 314
-1226 213 -231 -52 -435 -144 -609 -276 -56 -43 -104 -78 -107 -78 -3 0 -5 10
-5 23 0 39 -48 224 -81 307 l-30 80 -1515 0 -1514 0 0 -803z m1673 638 c223
-47 357 -219 357 -459 0 -253 -128 -428 -351 -481 -48 -11 -128 -15 -326 -15
l-263 0 0 485 0 485 258 0 c184 0 276 -4 325 -15z m2865 -791 c259 -52 460
-248 523 -510 29 -121 23 -282 -15 -399 -67 -209 -220 -367 -425 -438 -70 -25
-107 -31 -196 -35 -142 -5 -231 13 -351 73 -265 130 -413 435 -363 745 24 152
86 276 190 381 160 162 400 231 637 183z"/>
<path d="M1097 7698 c19 -31 871 -1390 899 -1434 13 -19 -22 -78 -447 -755
-253 -404 -463 -737 -466 -741 -2 -5 260 -8 584 -8 l588 0 179 285 c98 157
181 283 185 281 3 -2 85 -130 181 -285 l175 -280 590 -1 590 0 111 178 c61 97
268 427 459 732 191 305 349 560 352 566 2 6 -123 212 -277 458 l-282 446
-583 0 -583 0 -183 290 c-101 160 -186 290 -189 290 -4 0 -87 -128 -185 -285
l-179 -285 -43 68 c-23 37 -104 167 -180 289 l-138 222 -588 1 -589 0 19 -32z
m2645 -1183 c85 -137 158 -256 162 -262 6 -11 -292 -502 -328 -541 -10 -10
-47 43 -183 259 l-170 272 171 273 c128 205 174 270 182 261 6 -7 81 -124 166
-262z"/>
<path d="M4864 7703 c-10 -16 -71 -113 -136 -216 l-118 -189 294 -469 293
-469 427 680 c234 374 426 682 426 685 0 3 -263 5 -584 5 l-584 0 -18 -27z"/>
<path d="M14758 6703 c-92 -170 -257 -479 -369 -688 -111 -209 -276 -517 -367
-685 -542 -1003 -629 -1161 -668 -1222 -132 -199 -368 -356 -614 -409 l-85
-18 577 0 c623 -1 653 1 793 54 147 55 291 165 379 289 43 60 307 546 621
1141 87 165 233 440 325 610 92 171 222 414 290 540 68 127 179 333 247 458
68 126 123 230 123 233 0 2 -244 4 -543 4 l-543 0 -166 -307z"/>
<path d="M4902 5654 l-292 -466 132 -213 133 -214 588 -1 589 0 -19 33 c-52
86 -817 1304 -827 1314 -9 10 -80 -96 -304 -453z"/>
<path d="M7284 4528 c-15 -24 -31 -49 -37 -55 -6 -9 -5 -13 4 -13 12 0 79 90
79 105 0 18 -24 -1 -46 -37z"/>
<path d="M9982 4519 c-36 -55 -34 -82 2 -37 39 50 59 88 44 88 -7 0 -28 -23
-46 -51z"/>
<path d="M8081 4409 c-24 -4 -55 -18 -68 -30 -23 -22 -23 -25 -23 -241 l0
-219 26 -24 c46 -42 200 -47 253 -7 37 27 43 65 39 272 -3 171 -5 190 -23 210
-11 12 -29 26 -40 30 -36 14 -119 19 -164 9z m119 -20 c79 -17 80 -21 80 -254
0 -201 0 -202 -25 -225 -45 -43 -176 -40 -221 5 -24 24 -24 27 -24 219 0 188
1 196 23 221 19 23 61 40 104 44 7 1 35 -4 63 -10z"/>
<path d="M8520 4414 c-102 -19 -110 -40 -109 -276 1 -101 4 -194 8 -207 12
-42 54 -65 130 -69 75 -5 129 9 155 37 9 10 19 41 23 70 5 43 3 51 -11 51 -12
0 -16 -10 -16 -43 0 -34 -6 -49 -26 -68 -23 -21 -35 -24 -104 -24 -69 0 -81 3
-104 24 l-26 24 0 203 c0 230 2 238 79 255 103 23 181 -16 181 -91 0 -29 4
-40 15 -40 36 0 8 113 -34 134 -29 15 -122 27 -161 20z"/>
<path d="M10881 4409 c-24 -4 -55 -18 -68 -30 -23 -22 -23 -25 -23 -241 l0
-219 26 -24 c46 -42 200 -47 253 -7 37 27 43 65 39 272 -3 171 -5 190 -23 210
-11 12 -29 26 -40 30 -36 14 -119 19 -164 9z m119 -20 c79 -17 80 -21 80 -254
0 -201 0 -202 -25 -225 -45 -43 -176 -40 -221 5 -24 24 -24 27 -24 219 0 188
1 196 23 221 19 23 61 40 104 44 7 1 35 -4 63 -10z"/>
<path d="M7120 4140 l0 -270 145 0 c90 0 145 4 145 10 0 6 -52 10 -135 10
l-135 0 0 125 0 125 125 0 c77 0 125 4 125 10 0 6 -48 10 -125 10 l-125 0 0
115 0 115 130 0 c80 0 130 4 130 10 0 6 -53 10 -140 10 l-140 0 0 -270z"/>
<path d="M7650 4140 l0 -270 146 0 c94 0 143 4 139 10 -4 6 -58 10 -131 10
l-124 0 0 260 c0 224 -2 260 -15 260 -13 0 -15 -37 -15 -270z"/>
<path d="M8921 4388 c-5 -13 -41 -129 -81 -258 -40 -129 -75 -241 -77 -247 -3
-7 1 -13 8 -13 9 0 24 32 39 85 l25 86 105 -3 105 -3 24 -82 c15 -50 30 -83
38 -83 7 0 13 1 13 3 -1 26 -169 532 -178 535 -6 2 -16 -7 -21 -20z m67 -173
c23 -77 42 -143 42 -147 0 -5 -40 -8 -90 -8 -65 0 -90 3 -90 13 0 6 18 68 40
137 22 69 40 134 40 145 0 38 17 -2 58 -140z"/>
<path d="M9190 4140 l0 -270 140 0 c87 0 140 4 140 10 0 6 -50 10 -130 10
l-130 0 0 260 c0 167 -4 260 -10 260 -6 0 -10 -97 -10 -270z"/>
<path d="M9820 4140 l0 -270 151 0 c97 0 148 4 144 10 -4 6 -60 10 -136 10
l-129 0 0 125 0 125 120 0 c73 0 120 4 120 10 0 6 -47 10 -120 10 l-120 0 0
115 0 115 130 0 c80 0 130 4 130 10 0 6 -55 10 -145 10 l-145 0 0 -270z"/>
<path d="M10360 4141 l0 -271 119 0 c106 0 121 2 152 23 18 12 36 33 40 47 12
42 10 364 -2 399 -18 51 -57 65 -191 69 l-118 4 0 -271z m222 239 c64 -18 68
-31 68 -241 0 -103 -3 -195 -6 -204 -13 -32 -59 -45 -164 -45 l-100 0 0 243
c0 134 3 247 7 250 10 11 154 8 195 -3z"/>
<path d="M11370 4140 l0 -270 115 0 c124 0 175 13 194 48 6 12 11 54 11 95 0
67 -3 77 -26 101 -15 14 -35 26 -46 26 -16 0 -13 6 16 34 34 32 36 37 36 99 0
111 -40 136 -212 137 l-88 0 0 -270z m237 230 c53 -34 57 -145 8 -187 -23 -20
-37 -23 -121 -23 l-94 0 0 116 0 116 93 -4 c55 -2 101 -10 114 -18z m-23 -240
c64 -14 81 -39 81 -120 0 -59 -3 -73 -23 -92 -20 -21 -34 -23 -132 -26 l-110
-4 0 126 0 126 73 0 c39 0 90 -5 111 -10z"/>
<path d="M11800 4140 l0 -270 145 0 c90 0 145 4 145 10 0 6 -52 10 -135 10
l-135 0 0 125 0 125 125 0 c77 0 125 4 125 10 0 6 -48 10 -125 10 l-125 0 0
115 0 115 130 0 c80 0 130 4 130 10 0 6 -53 10 -140 10 l-140 0 0 -270z"/>
<path d="M12180 4141 c0 -174 4 -271 10 -271 6 0 10 85 11 233 0 161 3 227 10
217 6 -8 43 -94 83 -190 45 -108 79 -176 88 -178 11 -2 23 17 41 60 14 35 51
124 81 198 l56 135 0 -237 c0 -205 2 -238 15 -238 13 0 15 37 15 270 0 223 -2
270 -14 270 -8 0 -47 -81 -102 -214 -49 -118 -90 -214 -91 -212 -1 1 -42 96
-90 211 -49 114 -94 210 -101 213 -9 3 -12 -56 -12 -267z"/>
<path d="M9530 3905 c0 -24 5 -35 15 -35 10 0 15 11 15 35 0 24 -5 35 -15 35
-10 0 -15 -11 -15 -35z"/>
</g>
</svg>
